<mxfile host="65bd71144e">
    <diagram id="HIP3nbAZw_EuaXWnEj3U" name="Page-1">
        <mxGraphModel dx="1086" dy="658" grid="1" gridSize="10" guides="1" tooltips="1" connect="1" arrows="1" fold="1" page="1" pageScale="1" pageWidth="850" pageHeight="1100" math="0" shadow="0">
            <root>
                <mxCell id="0"/>
                <mxCell id="1" parent="0"/>
                <mxCell id="8" value="http://ics2o.mths.ca" style="swimlane;whiteSpace=wrap;html=1;" vertex="1" parent="1">
                    <mxGeometry x="40" y="40" width="770" height="480" as="geometry"/>
                </mxCell>
                <mxCell id="9" value="&lt;h1 style=&quot;margin-top: 0px; line-height: 270%;&quot;&gt;&lt;font style=&quot;font-size: 30px;&quot;&gt;Student pricing, with JS&lt;/font&gt;&lt;/h1&gt;" style="text;html=1;whiteSpace=wrap;overflow=hidden;rounded=0;" vertex="1" parent="8">
                    <mxGeometry x="20" y="20" width="550" height="70" as="geometry"/>
                </mxCell>
                <mxCell id="10" value="&lt;span style=&quot;font-size: 26px;&quot;&gt;enter your age:&lt;/span&gt;" style="text;html=1;align=left;verticalAlign=middle;whiteSpace=wrap;rounded=0;" vertex="1" parent="8">
                    <mxGeometry x="20" y="90" width="490" height="30" as="geometry"/>
                </mxCell>
                <mxCell id="11" value="&lt;span style=&quot;font-size: 17px;&quot;&gt;Show results&lt;/span&gt;" style="rounded=1;whiteSpace=wrap;html=1;align=center;fillColor=light-dark(#FFFFFF,#000000);strokeColor=light-dark(#000000,#FFFFFF);" vertex="1" parent="8">
                    <mxGeometry x="37.5" y="320" width="200" height="30" as="geometry"/>
                </mxCell>
                <mxCell id="12" value="&lt;font style=&quot;font-size: 26px;&quot;&gt;You are eligible for student discount/you must pay full price&lt;/font&gt;" style="text;html=1;align=left;verticalAlign=middle;whiteSpace=wrap;rounded=0;" vertex="1" parent="8">
                    <mxGeometry x="17.5" y="360" width="702.5" height="30" as="geometry"/>
                </mxCell>
                <mxCell id="13" value="&lt;font style=&quot;font-size: 21px;&quot;&gt;Sunday&lt;/font&gt;" style="text;html=1;align=left;verticalAlign=middle;whiteSpace=wrap;rounded=0;" vertex="1" parent="8">
                    <mxGeometry x="50" y="240" width="80" height="20" as="geometry"/>
                </mxCell>
                <mxCell id="16" value="" style="verticalLabelPosition=bottom;verticalAlign=top;html=1;shape=mxgraph.flowchart.on-page_reference;" vertex="1" parent="8">
                    <mxGeometry x="20" y="240" width="20" height="20" as="geometry"/>
                </mxCell>
                <mxCell id="17" value="" style="verticalLabelPosition=bottom;verticalAlign=top;html=1;shape=mxgraph.flowchart.on-page_reference;fillColor=#000000;" vertex="1" parent="8">
                    <mxGeometry x="22.5" y="242.5" width="15" height="15" as="geometry"/>
                </mxCell>
                <mxCell id="28" value="Age..." style="rounded=1;whiteSpace=wrap;html=1;align=left;fillColor=light-dark(#FFFFFF,#000000);strokeColor=light-dark(#000000,#FFFFFF);" vertex="1" parent="8">
                    <mxGeometry x="20" y="140" width="280" height="30" as="geometry"/>
                </mxCell>
                <mxCell id="29" value="&lt;span style=&quot;font-size: 26px;&quot;&gt;Select the date you are going&lt;/span&gt;" style="text;html=1;align=left;verticalAlign=middle;whiteSpace=wrap;rounded=0;" vertex="1" parent="8">
                    <mxGeometry x="20" y="190" width="490" height="30" as="geometry"/>
                </mxCell>
                <mxCell id="40" value="" style="verticalLabelPosition=bottom;verticalAlign=top;html=1;shape=mxgraph.flowchart.on-page_reference;" vertex="1" parent="8">
                    <mxGeometry x="140" y="240" width="20" height="20" as="geometry"/>
                </mxCell>
                <mxCell id="41" value="" style="verticalLabelPosition=bottom;verticalAlign=top;html=1;shape=mxgraph.flowchart.on-page_reference;fillColor=#FFFFFF;" vertex="1" parent="8">
                    <mxGeometry x="142.5" y="242.5" width="15" height="15" as="geometry"/>
                </mxCell>
                <mxCell id="45" value="&lt;font style=&quot;font-size: 21px;&quot;&gt;Monday&lt;/font&gt;" style="text;html=1;align=left;verticalAlign=middle;whiteSpace=wrap;rounded=0;" vertex="1" parent="8">
                    <mxGeometry x="170" y="240" width="80" height="20" as="geometry"/>
                </mxCell>
                <mxCell id="49" value="&lt;font style=&quot;font-size: 21px;&quot;&gt;Tuesday&lt;/font&gt;" style="text;html=1;align=left;verticalAlign=middle;whiteSpace=wrap;rounded=0;" vertex="1" parent="8">
                    <mxGeometry x="280" y="240" width="80" height="20" as="geometry"/>
                </mxCell>
                <mxCell id="50" value="" style="verticalLabelPosition=bottom;verticalAlign=top;html=1;shape=mxgraph.flowchart.on-page_reference;" vertex="1" parent="8">
                    <mxGeometry x="250" y="240" width="20" height="20" as="geometry"/>
                </mxCell>
                <mxCell id="51" value="" style="verticalLabelPosition=bottom;verticalAlign=top;html=1;shape=mxgraph.flowchart.on-page_reference;fillColor=#FFFFFF;" vertex="1" parent="8">
                    <mxGeometry x="252.5" y="242.5" width="15" height="15" as="geometry"/>
                </mxCell>
                <mxCell id="52" value="" style="verticalLabelPosition=bottom;verticalAlign=top;html=1;shape=mxgraph.flowchart.on-page_reference;" vertex="1" parent="8">
                    <mxGeometry x="370" y="240" width="20" height="20" as="geometry"/>
                </mxCell>
                <mxCell id="53" value="" style="verticalLabelPosition=bottom;verticalAlign=top;html=1;shape=mxgraph.flowchart.on-page_reference;fillColor=#FFFFFF;" vertex="1" parent="8">
                    <mxGeometry x="372.5" y="242.5" width="15" height="15" as="geometry"/>
                </mxCell>
                <mxCell id="54" value="&lt;font style=&quot;font-size: 21px;&quot;&gt;Wednesday&lt;/font&gt;" style="text;html=1;align=left;verticalAlign=middle;whiteSpace=wrap;rounded=0;" vertex="1" parent="8">
                    <mxGeometry x="400" y="240" width="80" height="20" as="geometry"/>
                </mxCell>
                <mxCell id="55" value="&lt;font style=&quot;font-size: 21px;&quot;&gt;Thursday&lt;/font&gt;" style="text;html=1;align=left;verticalAlign=middle;whiteSpace=wrap;rounded=0;" vertex="1" parent="8">
                    <mxGeometry x="50" y="280" width="80" height="20" as="geometry"/>
                </mxCell>
                <mxCell id="56" value="" style="verticalLabelPosition=bottom;verticalAlign=top;html=1;shape=mxgraph.flowchart.on-page_reference;" vertex="1" parent="8">
                    <mxGeometry x="20" y="280" width="20" height="20" as="geometry"/>
                </mxCell>
                <mxCell id="57" value="" style="verticalLabelPosition=bottom;verticalAlign=top;html=1;shape=mxgraph.flowchart.on-page_reference;fillColor=#FFFFFF;" vertex="1" parent="8">
                    <mxGeometry x="22.5" y="282.5" width="15" height="15" as="geometry"/>
                </mxCell>
                <mxCell id="58" value="" style="verticalLabelPosition=bottom;verticalAlign=top;html=1;shape=mxgraph.flowchart.on-page_reference;" vertex="1" parent="8">
                    <mxGeometry x="140" y="280" width="20" height="20" as="geometry"/>
                </mxCell>
                <mxCell id="59" value="" style="verticalLabelPosition=bottom;verticalAlign=top;html=1;shape=mxgraph.flowchart.on-page_reference;fillColor=#FFFFFF;" vertex="1" parent="8">
                    <mxGeometry x="142.5" y="282.5" width="15" height="15" as="geometry"/>
                </mxCell>
                <mxCell id="60" value="&lt;font style=&quot;font-size: 21px;&quot;&gt;Friday&lt;/font&gt;" style="text;html=1;align=left;verticalAlign=middle;whiteSpace=wrap;rounded=0;" vertex="1" parent="8">
                    <mxGeometry x="170" y="280" width="80" height="20" as="geometry"/>
                </mxCell>
                <mxCell id="61" value="" style="verticalLabelPosition=bottom;verticalAlign=top;html=1;shape=mxgraph.flowchart.on-page_reference;" vertex="1" parent="8">
                    <mxGeometry x="250" y="280" width="20" height="20" as="geometry"/>
                </mxCell>
                <mxCell id="62" value="" style="verticalLabelPosition=bottom;verticalAlign=top;html=1;shape=mxgraph.flowchart.on-page_reference;fillColor=#FFFFFF;" vertex="1" parent="8">
                    <mxGeometry x="252.5" y="282.5" width="15" height="15" as="geometry"/>
                </mxCell>
                <mxCell id="63" value="&lt;font style=&quot;font-size: 21px;&quot;&gt;Saturday&lt;/font&gt;" style="text;html=1;align=left;verticalAlign=middle;whiteSpace=wrap;rounded=0;" vertex="1" parent="8">
                    <mxGeometry x="280" y="280" width="80" height="20" as="geometry"/>
                </mxCell>
            </root>
        </mxGraphModel>
    </diagram>
</mxfile>